<svg width="24" height="24" xmlns="http://www.w3.org/2000/svg" clip-rule="evenodd">

 <g>
  <title>background</title>
  <rect fill="none" id="canvas_background" height="602" width="802" y="-1" x="-1"/>
 </g>
 <g>
  <title>Layer 1</title>
  <path fill="#b4fff3" id="svg_1" d="m19,24l-14,0c-2.761,0 -5,-2.239 -5,-5l0,-14c0,-2.761 2.239,-5 5,-5l14,0c2.762,0 5,2.239 5,5l0,14c0,2.761 -2.238,5 -5,5zm-0.141,-6.333c0.63,0 1.141,-0.512 1.141,-1.142l0,-9.05c0,-0.63 -0.511,-1.142 -1.141,-1.142l-13.718,0c-0.63,0 -1.141,0.512 -1.141,1.142l0,9.05c0,0.63 0.511,1.142 1.141,1.142l13.718,0zm-6.859,-4.058l-6.228,-4.321l-0.014,7.712l12.457,0l0,-7.712l-6.215,4.321zm5.913,-6.609c-1.745,1.215 -5.913,4.153 -5.913,4.153l-5.947,-4.153l11.86,0z"/>
 </g>
</svg>